<svg width="48" height="48" viewBox="0 0 48 48" fill="none" xmlns="http://www.w3.org/2000/svg">
<path fill-rule="evenodd" clip-rule="evenodd" d="M38 18C38 10.268 31.732 4 24 4H10H6L10 8V18C10 20.1472 10.4834 22.1815 11.3473 24C10.4834 25.8185 10 27.8528 10 30V40L6 44H10H24C31.732 44 38 37.732 38 30C38 27.8528 37.5166 25.8185 36.6527 24C37.5166 22.1815 38 20.1472 38 18ZM34 18C34 12.4772 29.5228 8 24 8H14V18C14 18.6855 14.069 19.3549 14.2004 20.0016C16.7256 17.5263 20.1846 16 24 16C27.8154 16 31.2744 17.5263 33.7996 20.0016C33.931 19.3549 34 18.6855 34 18ZM34 30C34 35.5228 29.5228 40 24 40H14V30C14 29.3145 14.069 28.6451 14.2004 27.9984C16.7256 30.4737 20.1846 32 24 32C27.8154 32 31.2744 30.4737 33.7996 27.9984C33.931 28.6451 34 29.3145 34 30ZM15.9993 24C17.8237 26.4289 20.7284 28 24 28C27.2716 28 30.1763 26.4289 32.0007 24C30.1763 21.5711 27.2716 20 24 20C20.7284 20 17.8237 21.5711 15.9993 24Z" fill="#EDEEF0" fill-opacity="0.96"/>
</svg>
