<svg width="16" height="16" viewBox="0 0 16 16" fill="none" xmlns="http://www.w3.org/2000/svg">
<path fill-rule="evenodd" clip-rule="evenodd" d="M6.9906 1.49035C5.53191 1.49035 4.13296 2.06982 3.10151 3.10127C2.07006 4.13272 1.4906 5.53166 1.4906 6.99035C1.4906 8.44905 2.07006 9.84799 3.10151 10.8794C4.13296 11.9109 5.53191 12.4904 6.9906 12.4904C8.44929 12.4904 9.84824 11.9109 10.8797 10.8794C11.9111 9.84799 12.4906 8.44905 12.4906 6.99035C12.4906 5.53166 11.9111 4.13272 10.8797 3.10127C9.84824 2.06982 8.44929 1.49035 6.9906 1.49035ZM-0.0093994 6.99035C-0.00930498 5.87102 0.259213 4.76804 0.77363 3.77392C1.28805 2.7798 2.03336 1.92353 2.94705 1.27695C3.86075 0.63037 4.91617 0.212328 6.0248 0.057892C7.13342 -0.096544 8.26292 0.0171293 9.31854 0.389377C10.3742 0.761624 11.3251 1.38159 12.0916 2.19727C12.8582 3.01295 13.4179 4.00056 13.7239 5.07725C14.0299 6.15393 14.0733 7.28831 13.8503 8.38521C13.6274 9.48211 13.1446 10.5096 12.4426 11.3814L15.7706 14.7104C15.8443 14.779 15.9034 14.8618 15.9444 14.9538C15.9854 15.0458 16.0074 15.1451 16.0092 15.2458C16.011 15.3465 15.9924 15.4466 15.9547 15.54C15.917 15.6333 15.8609 15.7182 15.7896 15.7894C15.7184 15.8606 15.6336 15.9168 15.5402 15.9545C15.4468 15.9922 15.3468 16.0107 15.2461 16.0089C15.1454 16.0072 15.0461 15.9851 14.9541 15.9441C14.8621 15.9031 14.7793 15.844 14.7106 15.7704L11.3816 12.4424C10.3531 13.2707 9.11134 13.7913 7.79961 13.9439C6.48787 14.0965 5.15972 13.875 3.96855 13.3049C2.77737 12.7348 1.77177 11.8393 1.06787 10.722C0.36398 9.60461 -0.00948911 8.31094 -0.0093994 6.99035Z" fill="#EDEEF0" fill-opacity="0.96"/>
</svg>
