<svg width="24" height="24" viewBox="0 0 24 24" fill="none" xmlns="http://www.w3.org/2000/svg">
<path d="M13.1223 14.8446L18.0009 21.9999M10.8795 14.8446L6.0009 21.9999M14.0009 13.2C14.0009 14.3045 13.1055 15.2 12.0009 15.2C10.8963 15.2 10.0009 14.3045 10.0009 13.2C10.0009 12.0954 10.8963 11.2 12.0009 11.2C13.1055 11.2 14.0009 12.0954 14.0009 13.2ZM17.1494 4.53225L5.36511 7.68984C5.09462 7.76232 4.95938 7.79855 4.87017 7.87888C4.79171 7.94953 4.73762 8.04321 4.71567 8.14649C4.69071 8.26391 4.72695 8.39915 4.79942 8.66964L5.67941 11.9538C5.75188 12.2243 5.78812 12.3595 5.86844 12.4487C5.9391 12.5272 6.03278 12.5813 6.13606 12.6032C6.25348 12.6282 6.38872 12.5919 6.6592 12.5195L18.4435 9.36188L17.1494 4.53225ZM21.7933 9.49958C20.7113 9.78949 20.1704 9.93444 19.7007 9.83461C19.2876 9.74679 18.9129 9.53045 18.6302 9.21657C18.309 8.85975 18.164 8.31878 17.8741 7.23684L17.7188 6.65728C17.4289 5.57535 17.284 5.03438 17.3838 4.56471C17.4716 4.15158 17.6879 3.77686 18.0018 3.49425C18.3586 3.17296 18.8996 3.02801 19.9815 2.7381C20.252 2.66562 20.3873 2.62939 20.5047 2.65434C20.608 2.6763 20.7017 2.73038 20.7723 2.80885C20.8526 2.89806 20.8889 3.0333 20.9613 3.30379L22.359 8.51979C22.4314 8.79027 22.4677 8.92551 22.4427 9.04293C22.4208 9.14621 22.3667 9.23989 22.2882 9.31055C22.199 9.39087 22.0638 9.42711 21.7933 9.49958ZM3.50261 12.33L4.8549 11.9677C5.12539 11.8952 5.26063 11.8589 5.34984 11.7786C5.42831 11.708 5.48239 11.6143 5.50435 11.511C5.5293 11.3936 5.49306 11.2583 5.42059 10.9879L5.05824 9.63556C4.98577 9.36508 4.94953 9.22983 4.86921 9.14063C4.79855 9.06216 4.70487 9.00807 4.60159 8.98612C4.48417 8.96116 4.34893 8.9974 4.07845 9.06988L2.72615 9.43222C2.45567 9.5047 2.32042 9.54094 2.23122 9.62126C2.15275 9.69191 2.09866 9.78559 2.07671 9.88888C2.05175 10.0063 2.08799 10.1415 2.16046 10.412L2.52281 11.7643C2.59529 12.0348 2.63153 12.17 2.71185 12.2592C2.7825 12.3377 2.87618 12.3918 2.97946 12.4138C3.09688 12.4387 3.23212 12.4025 3.50261 12.33Z" stroke="#EDEEF0" stroke-opacity="0.96" stroke-width="2" stroke-linecap="round" stroke-linejoin="round"/>
</svg>
